# xmcd
#
# Track frame offsets:
#	150
#	12260
#	25115
#	37297
#	49757
#	62965
#	74080
#	80265
#	92042
#	99140
#	111892
#	123595
#	135025
#	146472
#	158282
#	169695
#	182030
#	193292
#	199372
#	210350
#
# Disc length: 2968
#
# Revision: 1
# Processed by: cddbd v1.5.1PL0 Copyright (c) Steve Scherf et al.
# Submitted via: CDex 1.51
# Normalized: r0:TDELIM( - ),TSWAP
#
DISCID=130b9614
DTITLE=Cline, Patsy and Wells, Kitty - Twenty Great Hits
DYEAR=1988
DGENRE=Country
TTITLE0=Kitty Wells - It Wasn't God Who Made Honky Tonk Angels
TTITLE1=Patsy Cline - I Fall To Pieces
TTITLE2=Kitty Wells - Making Believe
TTITLE3=Patsy Cline - Crazy
TTITLE4=Kitty Wells - Talk Back Trembling Lips
TTITLE5=Patsy Cline - I Can't Forget You
TTITLE6=Kitty Wells - This White Circle
TTITLE7=Patsy Cline - Today, Tomorrow and Forever
TTITLE8=Kitty Wells - Big Truck Driving Man
TTITLE9=Patsy Cline - Someday You'll Want Me To Forget You
TTITLE10=Patsy Cline - Walking After Midnight
TTITLE11=Kitty Wells - Searching
TTITLE12=Patsy Cline - Just Out Of Reach
TTITLE13=Kitty Wells - Heartbreak U.S.A.
TTITLE14=Patsy Cline - In Care Of The Blues
TTITLE15=Kitty Wells - Mommy For A Day
TTITLE16=Patsy Cline - Hungry For Love
TTITLE17=Kitty Wells - Release Me
TTITLE18=Patsy Cline - Stop The World
TTITLE19=Kitty Wells - We'll Stick Together
EXTD=YEAR: 1988
EXTT0=
EXTT1=
EXTT2=
EXTT3=
EXTT4=
EXTT5=
EXTT6=
EXTT7=
EXTT8=
EXTT9=
EXTT10=
EXTT11=
EXTT12=
EXTT13=
EXTT14=
EXTT15=
EXTT16=
EXTT17=
EXTT18=
EXTT19=
PLAYORDER=
